<?xml version="1.0" encoding="utf-8"?>
<!-- Generator: Adobe Illustrator 18.1.1, SVG Export Plug-In . SVG Version: 6.00 Build 0)  -->
<!DOCTYPE svg PUBLIC "-//W3C//DTD SVG 1.1//EN" "http://www.w3.org/Graphics/SVG/1.1/DTD/svg11.dtd">
<svg version="1.1" id="Layer_1" xmlns="http://www.w3.org/2000/svg" xmlns:xlink="http://www.w3.org/1999/xlink" x="0px" y="0px"
	 viewBox="0 0 1000 1000" enable-background="new 0 0 1000 1000" xml:space="preserve">
<g>
	<path fill="#85739B" d="M840.6,287.1H708.8l-78.9-79.7c0,0-0.4-0.4-0.6-0.4l-0.4-0.4l0,0c-11.7-11.7-27.5-19.1-45.5-19.1H419.3
		c-19.1,0-36.1,8.2-48,21.3v0.2l-77.1,78.1H159.4c-36.3,0-65.6,28.5-65.6,64.8v394.7c0,36.3,29.3,65.8,65.6,65.8h681.2
		c36.1,0,65.6-29.5,65.6-65.8V352C906.2,315.6,876.8,287.1,840.6,287.1z M500,713.9c-99.4,0-180.5-81.2-180.5-180.9
		c0-99.8,81.1-180.9,180.5-180.9c99.6,0,180.5,81.1,180.5,180.9C680.5,632.6,599.6,713.9,500,713.9z"/>
	<path fill="#85739B" d="M500,396.3c-75.4,0-136.3,61.1-136.3,136.7c0,75.4,60.9,136.7,136.3,136.7c75.2,0,136.3-61.1,136.3-136.7
		S575.2,396.3,500,396.3z"/>
</g>
</svg>
